<svg width="159" height="52" viewBox="0 0 159 52" fill="none" xmlns="http://www.w3.org/2000/svg">
<path d="M11.0479 2.44L0.679932 25H5.70393L7.78393 20.104L9.44793 16.232L12.9999 7.72H13.0639L16.6799 16.232L18.3119 20.104L20.4239 25H25.4159L15.0479 2.44H11.0479Z" fill="#3E3E4B"/>
<path fill-rule="evenodd" clip-rule="evenodd" d="M27.2057 9.288V25H36.3897C38.4164 25 39.9523 24.6053 40.9977 23.816C42.0643 23.0053 42.5977 21.928 42.5977 20.584C42.5977 19.6453 42.3523 18.8453 41.8617 18.184C41.371 17.5227 40.603 17.064 39.5577 16.808C40.3257 16.5307 40.923 16.0933 41.3497 15.496C41.7977 14.8987 42.0217 14.2053 42.0217 13.416C42.0217 12.136 41.5737 11.1333 40.6777 10.408C39.7817 9.66134 38.267 9.288 36.1337 9.288H27.2057ZM35.6217 15.56H31.6537V12.168H35.6217C36.2617 12.168 36.763 12.3067 37.1257 12.584C37.4883 12.8613 37.6697 13.2773 37.6697 13.832C37.6697 14.3867 37.4883 14.8133 37.1257 15.112C36.763 15.4107 36.2617 15.56 35.6217 15.56ZM35.9097 22.12H31.6537V18.408H35.9097C37.467 18.408 38.2457 19.0267 38.2457 20.264C38.2457 21.5013 37.467 22.12 35.9097 22.12Z" fill="#3E3E4B"/>
<path d="M45.7994 25V9.288H50.1514V18.792L57.3194 9.288H61.2874V25H56.9354V15.496L49.7674 25H45.7994Z" fill="#3E3E4B"/>
<path d="M79.1822 25V29.16H83.2782V21.256H80.6542V9.288H75.8222V21.256H70.3502V9.288H65.5182V25H79.1822Z" fill="#3E3E4B"/>
<path fill-rule="evenodd" clip-rule="evenodd" d="M94.0844 25.352C92.2284 25.352 90.6284 25.0213 89.2844 24.36C87.9618 23.6773 86.9378 22.728 86.2124 21.512C85.5084 20.2747 85.1564 18.824 85.1564 17.16C85.1564 15.5387 85.4978 14.12 86.1804 12.904C86.8844 11.6667 87.8338 10.7067 89.0284 10.024C90.2444 9.32 91.6418 8.968 93.2204 8.968C95.5031 8.968 97.3164 9.69334 98.6604 11.144C100.004 12.5733 100.676 14.5147 100.676 16.968V18.184H89.7644C89.9351 19.4213 90.3831 20.328 91.1084 20.904C91.8551 21.4587 92.8791 21.736 94.1804 21.736C95.0338 21.736 95.8978 21.608 96.7724 21.352C97.6471 21.096 98.4364 20.7013 99.1404 20.168L100.42 23.4C99.6311 23.9973 98.6604 24.4773 97.5084 24.84C96.3778 25.1813 95.2364 25.352 94.0844 25.352ZM93.4124 12.168C92.3884 12.168 91.5564 12.4773 90.9164 13.096C90.2978 13.7147 89.9138 14.5787 89.7644 15.688H96.6764C96.5484 13.3413 95.4604 12.168 93.4124 12.168Z" fill="#3E3E4B"/>
<path d="M103.987 9.288V25H108.819V18.856H114.803V25H119.635V9.288H114.803V15.112H108.819V9.288H103.987Z" fill="#3E3E4B"/>
<path d="M123.831 25V9.288H128.663V15.112H134.647V9.288H139.479V25H134.647V18.856H128.663V25H123.831Z" fill="#3E3E4B"/>
<path fill-rule="evenodd" clip-rule="evenodd" d="M145.882 24.68C146.778 25.128 147.813 25.352 148.986 25.352C150.074 25.352 150.992 25.1067 151.738 24.616C152.506 24.1253 153.05 23.464 153.37 22.632V25H157.882V15.72C157.882 13.416 157.285 11.72 156.09 10.632C154.896 9.52267 153.082 8.968 150.65 8.968C149.861 8.968 149.029 9.05334 148.154 9.224C147.28 9.37334 146.437 9.59734 145.626 9.896C144.837 10.1947 144.165 10.5253 143.61 10.888L144.922 14.12C145.861 13.5867 146.8 13.192 147.738 12.936C148.698 12.6587 149.605 12.52 150.458 12.52C151.482 12.52 152.208 12.7227 152.634 13.128C153.061 13.512 153.274 14.1733 153.274 15.112V15.656H152.122C149.904 15.656 148.122 15.8053 146.778 16.104C145.434 16.3813 144.464 16.8613 143.866 17.544C143.269 18.2267 142.97 19.1333 142.97 20.264C142.97 21.224 143.226 22.088 143.738 22.856C144.272 23.624 144.986 24.232 145.882 24.68ZM152.346 21.192C151.728 21.8107 150.97 22.12 150.074 22.12C149.285 22.12 148.677 21.928 148.25 21.544C147.845 21.16 147.642 20.6693 147.642 20.072C147.642 19.368 147.984 18.8773 148.666 18.6C149.349 18.3013 150.512 18.152 152.154 18.152H153.274V18.792C153.274 19.7733 152.965 20.5733 152.346 21.192Z" fill="#3E3E4B"/>
<path d="M13.8508 23.9753C10.3911 24.6276 7.45784 23.3336 5.20385 22.8035C2.977 22.2804 1.2167 24.8853 1.2167 24.8853L0.903687 24.7794C0.903687 24.7794 1.51662 22.4336 4.60014 21.4057C4.60014 21.4057 5.62803 17.2943 7.16981 15.7525C8.71158 14.2108 10.2536 13.1829 12.8233 12.669C15.3929 12.1551 15.9555 12.0327 18.9904 11.6411C22.0252 11.2496 23.6094 10.1526 24 8.97714C23.7441 12.3305 23.2687 15.7399 21.7697 18.7534C20.2693 21.766 17.1479 23.3528 13.8508 23.9753Z" fill="#70DB3D"/>
<path d="M4.60017 21.4057C11.5 15 15.3607 19.6253 20.5 15C23.1742 12.5932 23.1015 11.6411 23.9703 9.35449C23.707 12.5856 23.2125 15.8529 21.7696 18.7533C20.2693 21.766 17.1479 23.3528 13.8508 23.9753C11.1278 24.4887 8.73096 23.7964 6.73473 23.2199C6.19464 23.0639 5.68385 22.9163 5.20387 22.8035C2.97702 22.2803 1.5 25 1.5 25H0.5C0.5 25 1 22.5 4.60017 21.4057Z" fill="#23B16D"/>
<path d="M6.2234 48.1638C5.33767 48.1638 4.57327 47.9757 3.9302 47.5996C3.28713 47.2113 2.78967 46.6714 2.4378 45.9798C2.09807 45.2761 1.9282 44.4571 1.9282 43.5228C1.9282 42.1153 2.3104 41.0112 3.0748 40.2104C3.8392 39.3975 4.88873 38.991 6.2234 38.991C6.7694 38.991 7.30933 39.0881 7.8432 39.2822C8.37707 39.4763 8.81993 39.7493 9.1718 40.1012L8.6622 41.175C8.31033 40.8353 7.92207 40.5865 7.4974 40.4288C7.08487 40.2711 6.69053 40.1922 6.3144 40.1922C5.39227 40.1922 4.68247 40.4834 4.185 41.0658C3.68753 41.6361 3.4388 42.4611 3.4388 43.541C3.4388 44.5966 3.68753 45.4338 4.185 46.0526C4.68247 46.6593 5.39227 46.9626 6.3144 46.9626C6.69053 46.9626 7.08487 46.8837 7.4974 46.726C7.92207 46.5683 8.31033 46.3135 8.6622 45.9616L9.1718 47.0354C8.81993 47.3873 8.371 47.6663 7.825 47.8726C7.29113 48.0667 6.75727 48.1638 6.2234 48.1638ZM15.0623 48.1638C13.667 48.1638 12.5629 47.7573 11.7499 46.9444C10.937 46.1193 10.5305 45.0031 10.5305 43.5956C10.5305 42.6856 10.7125 41.8848 11.0765 41.1932C11.4405 40.4895 11.938 39.9495 12.5689 39.5734C13.212 39.1851 13.9521 38.991 14.7893 38.991C15.9905 38.991 16.9309 39.3793 17.6103 40.1558C18.2898 40.9202 18.6295 41.9758 18.6295 43.3226V43.8868H11.9683C12.0169 44.8939 12.3081 45.6643 12.8419 46.1982C13.3758 46.7199 14.1159 46.9808 15.0623 46.9808C15.5962 46.9808 16.1058 46.9019 16.5911 46.7442C17.0765 46.5743 17.5375 46.3013 17.9743 45.9252L18.4839 46.9626C18.0835 47.3387 17.5739 47.636 16.9551 47.8544C16.3363 48.0607 15.7054 48.1638 15.0623 48.1638ZM14.8257 40.083C13.9885 40.083 13.3273 40.3439 12.8419 40.8656C12.3566 41.3873 12.0715 42.0729 11.9865 42.9222H17.3555C17.3191 42.0243 17.0825 41.3267 16.6457 40.8292C16.2211 40.3317 15.6144 40.083 14.8257 40.083ZM22.7608 48V40.3378H19.5576V39.1548H27.4564V40.3378H24.235V48H22.7608ZM29.0095 48V39.1548H30.4837V42.3034H33.1591C34.2875 42.3034 35.1429 42.5521 35.7253 43.0496C36.3077 43.5349 36.5989 44.2265 36.5989 45.1244C36.5989 46.0101 36.2956 46.7139 35.6889 47.2356C35.0944 47.7452 34.2511 48 33.1591 48H29.0095ZM30.4837 46.9444H33.0135C33.693 46.9444 34.2208 46.7988 34.5969 46.5076C34.9852 46.2164 35.1793 45.7614 35.1793 45.1426C35.1793 44.5359 34.9913 44.087 34.6151 43.7958C34.239 43.5046 33.7051 43.359 33.0135 43.359H30.4837V46.9444ZM47.2267 48.1638C46.341 48.1638 45.5766 47.9757 44.9335 47.5996C44.2905 47.2113 43.793 46.6714 43.4411 45.9798C43.1014 45.2761 42.9315 44.4571 42.9315 43.5228C42.9315 42.1153 43.3137 41.0112 44.0781 40.2104C44.8425 39.3975 45.8921 38.991 47.2267 38.991C47.7727 38.991 48.3127 39.0881 48.8465 39.2822C49.3804 39.4763 49.8233 39.7493 50.1751 40.1012L49.6655 41.175C49.3137 40.8353 48.9254 40.5865 48.5007 40.4288C48.0882 40.2711 47.6939 40.1922 47.3177 40.1922C46.3956 40.1922 45.6858 40.4834 45.1883 41.0658C44.6909 41.6361 44.4421 42.4611 44.4421 43.541C44.4421 44.5966 44.6909 45.4338 45.1883 46.0526C45.6858 46.6593 46.3956 46.9626 47.3177 46.9626C47.6939 46.9626 48.0882 46.8837 48.5007 46.726C48.9254 46.5683 49.3137 46.3135 49.6655 45.9616L50.1751 47.0354C49.8233 47.3873 49.3743 47.6663 48.8283 47.8726C48.2945 48.0667 47.7606 48.1638 47.2267 48.1638ZM53.8999 48V40.3378H50.6967V39.1548H58.5955V40.3378H55.3741V48H53.8999ZM63.8076 48.1638C62.9462 48.1638 62.2 47.9757 61.569 47.5996C60.9381 47.2235 60.4467 46.6957 60.0948 46.0162C59.7551 45.3246 59.5852 44.5117 59.5852 43.5774C59.5852 42.6431 59.7551 41.8363 60.0948 41.1568C60.4467 40.4652 60.9381 39.9313 61.569 39.5552C62.2 39.1791 62.9462 38.991 63.8076 38.991C64.657 38.991 65.3971 39.1791 66.028 39.5552C66.6711 39.9313 67.1625 40.4652 67.5022 41.1568C67.8541 41.8363 68.03 42.6431 68.03 43.5774C68.03 44.5117 67.8541 45.3246 67.5022 46.0162C67.1625 46.6957 66.6711 47.2235 66.028 47.5996C65.3971 47.9757 64.657 48.1638 63.8076 48.1638ZM63.8076 46.9808C64.6327 46.9808 65.294 46.6896 65.7914 46.1072C66.2889 45.5127 66.5376 44.6694 66.5376 43.5774C66.5376 42.4733 66.2889 41.63 65.7914 41.0476C65.294 40.4652 64.6327 40.174 63.8076 40.174C62.9704 40.174 62.3031 40.4652 61.8056 41.0476C61.3203 41.63 61.0776 42.4733 61.0776 43.5774C61.0776 44.6694 61.3203 45.5127 61.8056 46.1072C62.3031 46.6896 62.9704 46.9808 63.8076 46.9808ZM70.4216 48V39.1548H71.641L74.9716 45.0698L78.3022 39.1548H79.5034V48H78.193V41.5572L75.3356 46.5804H74.5894L71.732 41.5572V48H70.4216ZM85.2215 48.1638C84.6148 48.1638 84.0688 48.0485 83.5835 47.818C83.1103 47.5753 82.7342 47.2477 82.4551 46.8352C82.176 46.4227 82.0365 45.9616 82.0365 45.452C82.0365 44.8089 82.2003 44.2993 82.5279 43.9232C82.8676 43.5471 83.4197 43.2801 84.1841 43.1224C84.9606 42.9525 86.0162 42.8676 87.3509 42.8676H87.9333V42.3034C87.9333 41.5511 87.7756 41.0112 87.4601 40.6836C87.1568 40.3439 86.6654 40.174 85.9859 40.174C85.452 40.174 84.9364 40.2529 84.4389 40.4106C83.9414 40.5562 83.4318 40.7989 82.9101 41.1386L82.4005 40.0648C82.8616 39.7372 83.4197 39.4763 84.0749 39.2822C84.7422 39.0881 85.3792 38.991 85.9859 38.991C87.1264 38.991 87.9697 39.2701 88.5157 39.8282C89.0738 40.3863 89.3529 41.2539 89.3529 42.4308V48H87.9697V46.4712C87.7392 46.9929 87.3812 47.4055 86.8959 47.7088C86.4227 48.0121 85.8646 48.1638 85.2215 48.1638ZM85.4581 47.0536C86.1861 47.0536 86.7806 46.8049 87.2417 46.3074C87.7028 45.7978 87.9333 45.1547 87.9333 44.3782V43.8322H87.3691C86.3863 43.8322 85.6098 43.8807 85.0395 43.9778C84.4814 44.0627 84.087 44.2205 83.8565 44.451C83.6381 44.6694 83.5289 44.9727 83.5289 45.361C83.5289 45.8585 83.6988 46.2649 84.0385 46.5804C84.3904 46.8959 84.8636 47.0536 85.4581 47.0536ZM94.0678 48V40.3378H90.8646V39.1548H98.7634V40.3378H95.542V48H94.0678ZM103.976 48.1638C103.114 48.1638 102.368 47.9757 101.737 47.5996C101.106 47.2235 100.615 46.6957 100.263 46.0162C99.9231 45.3246 99.7532 44.5117 99.7532 43.5774C99.7532 42.6431 99.9231 41.8363 100.263 41.1568C100.615 40.4652 101.106 39.9313 101.737 39.5552C102.368 39.1791 103.114 38.991 103.976 38.991C104.825 38.991 105.565 39.1791 106.196 39.5552C106.839 39.9313 107.33 40.4652 107.67 41.1568C108.022 41.8363 108.198 42.6431 108.198 43.5774C108.198 44.5117 108.022 45.3246 107.67 46.0162C107.33 46.6957 106.839 47.2235 106.196 47.5996C105.565 47.9757 104.825 48.1638 103.976 48.1638ZM103.976 46.9808C104.801 46.9808 105.462 46.6896 105.959 46.1072C106.457 45.5127 106.706 44.6694 106.706 43.5774C106.706 42.4733 106.457 41.63 105.959 41.0476C105.462 40.4652 104.801 40.174 103.976 40.174C103.138 40.174 102.471 40.4652 101.974 41.0476C101.488 41.63 101.246 42.4733 101.246 43.5774C101.246 44.6694 101.488 45.5127 101.974 46.1072C102.471 46.6896 103.138 46.9808 103.976 46.9808ZM109.92 48.2002L109.374 47.0354C109.92 46.8049 110.351 46.4833 110.667 46.0708C110.982 45.6461 111.201 45.0637 111.322 44.3236C111.455 43.5835 111.522 42.6128 111.522 41.4116V39.1548H117.947V48H116.472V40.3378H112.905V41.4662C112.905 42.8494 112.802 43.9899 112.596 44.8878C112.402 45.7857 112.086 46.4955 111.649 47.0172C111.213 47.5389 110.636 47.9333 109.92 48.2002ZM124.557 48.1638C123.696 48.1638 122.95 47.9757 122.319 47.5996C121.688 47.2235 121.196 46.6957 120.844 46.0162C120.505 45.3246 120.335 44.5117 120.335 43.5774C120.335 42.6431 120.505 41.8363 120.844 41.1568C121.196 40.4652 121.688 39.9313 122.319 39.5552C122.95 39.1791 123.696 38.991 124.557 38.991C125.407 38.991 126.147 39.1791 126.778 39.5552C127.421 39.9313 127.912 40.4652 128.252 41.1568C128.604 41.8363 128.78 42.6431 128.78 43.5774C128.78 44.5117 128.604 45.3246 128.252 46.0162C127.912 46.6957 127.421 47.2235 126.778 47.5996C126.147 47.9757 125.407 48.1638 124.557 48.1638ZM124.557 46.9808C125.382 46.9808 126.044 46.6896 126.541 46.1072C127.039 45.5127 127.287 44.6694 127.287 43.5774C127.287 42.4733 127.039 41.63 126.541 41.0476C126.044 40.4652 125.382 40.174 124.557 40.174C123.72 40.174 123.053 40.4652 122.555 41.0476C122.07 41.63 121.827 42.4733 121.827 43.5774C121.827 44.6694 122.07 45.5127 122.555 46.1072C123.053 46.6896 123.72 46.9808 124.557 46.9808ZM131.171 48V39.1548H137.377V40.3378H132.645V48H131.171ZM139.08 48V39.1548H140.427V45.998L145.541 39.1548H146.797V48H145.45V41.1568L140.336 48H139.08ZM149.709 48V39.1548H151.056V45.998L156.17 39.1548H157.426V48H156.079V41.1568L150.965 48H149.709ZM153.567 38.0082C152.839 38.0082 152.196 37.8141 151.638 37.4258C151.08 37.0254 150.686 36.4248 150.455 35.624L151.311 35.2964C151.529 35.9152 151.82 36.3702 152.184 36.6614C152.56 36.9405 153.021 37.08 153.567 37.08C154.125 37.08 154.58 36.9465 154.932 36.6796C155.296 36.4127 155.624 35.9577 155.915 35.3146L156.752 35.624C156.425 36.4855 155.982 37.0982 155.424 37.4622C154.866 37.8262 154.247 38.0082 153.567 38.0082Z" fill="#8B8C9C"/>
</svg>
